<?xml version="1.0" encoding="UTF-8" standalone="no"?>
<!-- Created with Inkscape (http://www.inkscape.org/) -->

<svg
   xmlns:dc="http://purl.org/dc/elements/1.1/"
   xmlns:cc="http://creativecommons.org/ns#"
   xmlns:rdf="http://www.w3.org/1999/02/22-rdf-syntax-ns#"
   xmlns:svg="http://www.w3.org/2000/svg"
   xmlns="http://www.w3.org/2000/svg"
   xmlns:sodipodi="http://sodipodi.sourceforge.net/DTD/sodipodi-0.dtd"
   xmlns:inkscape="http://www.inkscape.org/namespaces/inkscape"
   version="1.1"
   id="svg64"
   width="1512"
   height="1512"
   viewBox="0 0 1512 1512"
   sodipodi:docname="initials.svg"
   inkscape:version="0.92.4 (f8dce91, 2019-08-02)">
  <metadata
     id="metadata70">
    <rdf:RDF>
      <cc:Work
         rdf:about="">
        <dc:format>image/svg+xml</dc:format>
        <dc:type
           rdf:resource="http://purl.org/dc/dcmitype/StillImage" />
        <dc:title></dc:title>
      </cc:Work>
    </rdf:RDF>
  </metadata>
  <defs
     id="defs68" />
  <sodipodi:namedview
     pagecolor="#ffffff"
     bordercolor="#666666"
     borderopacity="1"
     objecttolerance="10"
     gridtolerance="10"
     guidetolerance="10"
     inkscape:pageopacity="0"
     inkscape:pageshadow="2"
     inkscape:window-width="1851"
     inkscape:window-height="1176"
     id="namedview66"
     showgrid="false"
     inkscape:zoom="0.67328042"
     inkscape:cx="476.23097"
     inkscape:cy="814.3456"
     inkscape:window-x="69"
     inkscape:window-y="24"
     inkscape:window-maximized="1"
     inkscape:current-layer="svg64" />
  <path
     style="fill:#000000;stroke-width:0.56441402"
     d="m 524.94901,411.67768 c -0.7192,-0.003 -1.4375,0.002 -2.1563,0.0143 -73.87953,1.33953 -145.94817,30.92891 -204.15798,75.54439 -1.88184,-9.91316 14.01327,-66.63292 -11.1086,-49.74781 -8.6317,21.69947 -26.6531,41.16113 -40.53088,61.20254 -19.97027,21.99168 -41.54926,39.94908 -67.29644,59.0397 -19.86485,15.62393 -37.21934,23.9357 -63.52635,40.9123 -21.14253,11.27762 -7.60295,33.94681 17.28739,17.27635 54.73748,-36.07614 103.48225,-70.67766 142.07248,-119.79357 -6.98517,42.25521 -17.69286,84.11603 -33.05129,124.15014 -15.67829,46.55621 -37.49111,90.52834 -58.26031,134.91589 -9.94504,-0.981 -16.68486,-2.10733 -21.32824,-2.8584 -20.17992,0.25107 -25.46045,24.7585 -7.09057,28.4379 3.43274,0.3605 7.95143,0.8147 13.8151,1.667 -17.13063,31.6511 -36.31035,67.5867 -53.99795,98.9001 -17.33228,31.7508 -39.543856,63.4325 -58.273536,92.2817 -13.46995,20.2229 9.00693,35.09699 23.448976,15.0802 14.49823,-20.1161 23.92961,-35.8307 37.58821,-59.3272 53.87143,-92.2768 54.59303,-93.8464 80.11503,-144.6043 24.02423,-2.543 31.85134,-2.1551 73.31248,-6.4533 39.91612,-5.7082 43.05011,-6.0486 75.56394,-12.37929 37.12972,-9.28668 72.27031,-17.75304 107.00734,-34.40822 60.888,-26.19951 122.9818,-61.2712 148.0138,-125.84637 11.8451,-37.42654 15.65,-79.74567 2.9565,-117.45765 -9.3084,-45.86409 -55.097,-76.37781 -100.4028,-76.54644 z m -7.064,32.32483 c 13.0845,-0.014 26.1794,1.50345 39.1738,5.00586 35.2783,8.71124 57.8391,41.85454 62.9443,76.37007 6.689,48.87079 -25.2141,93.79312 -61.1871,123.45344 -36.7731,29.44514 -79.5751,50.8381 -123.67168,67.00432 -65.73093,23.51971 -135.39195,31.30864 -204.45787,38.48488 l -1.26222,-0.39906 c 23.3084,-46.92484 41.5602,-96.08713 58.50284,-145.59456 12.70609,-32.8023 16.17645,-61.22163 25.56398,-77.80315 23.80689,-21.89604 51.62794,-38.55405 80.35734,-53.15964 38.66224,-16.92759 81.29391,-33.31638 124.03661,-33.36216 z m 60.2391,504.0245 -22.4171,25.7927 22.6827,24.6423 19.9782,-24.7895 z"
     id="path74"
     inkscape:connector-curvature="0"
     sodipodi:nodetypes="cccccccccccccccccccccccccscccccccccsccccc" />
  <path
     style="fill:#000000;stroke-width:0.25328708"
     d="m 861.2554,449.02881 c 25.91816,-19.14156 63.71052,-26.67758 88.54495,-7.69057 37.95111,38.73095 9.53332,90.53894 -6.06359,132.28802 l -18.52753,41.32241 c -6.97793,9.40589 -16.12446,31.87966 -26.99275,56.01048 -6.24778,13.8719 -9.47445,23.09589 -15.21009,38.72314 -3.07867,8.38809 -6.13533,17.01863 -3.55755,27.90811 7.09537,11.21754 11.06607,10.40223 17.11713,11.75539 18.8598,4.21747 45.65335,-12.83403 54.45806,-21.93995 23.22198,-18.1246 62.40597,-68.75871 82.36527,-76.32953 19.3723,-3.29767 20.4295,17.00846 15.3897,41.08503 -4.3299,20.68587 -7.3444,32.52476 -12.7957,48.54588 -15.8862,42.95518 -37.68111,91.78018 -51.72012,135.26537 -5.99855,22.23747 -13.32121,35.53422 -15.95028,55.03485 -2.04166,15.14359 -1.22592,11.16271 -0.27357,27.56781 0,0 3.0863,10.63492 6.50906,12.41972 8.83904,4.60911 19.11629,0.54856 28.50961,-6.28424 12.9961,-9.45361 19.3115,-13.02821 29.397,-27.24268 7.5425,-9.27256 12.3265,-18.98525 17.7723,-29.00479 6.0122,-11.06164 13.4649,-21.5489 17.8603,-32.62642 11.1252,-22.96087 11.2203,-23.74954 20.5417,-45.69041 12.0914,-28.46107 26.3544,-70.73168 34.3615,-95.4444 13.4027,-37.57418 20.4373,-70.09636 37.4841,-106.37497 15.7228,-36.50394 37.0908,-70.66408 58.1127,-100.9051 16.3342,-19.45679 38.8711,-52.09302 56.6567,-70.21936 15.974,-15.6402 29.2108,-24.05534 46.9872,-37.82306 7.0903,-5.51064 12.2306,-9.62397 16.4929,-12.33896 17.8676,-13.84898 37.0605,2.48503 17.9252,17.87972 -13.34,10.67446 -33.1203,23.29618 -45.1713,35.31554 -30.6348,26.33289 -31.7256,26.75945 -60.8548,65.63543 -15.8786,21.39098 -32.2265,43.74233 -46.527,66.66075 -17.3794,27.85267 -21.6824,44.5691 -30.96,64.51398 -12.554,28.47296 -19.639,54.45084 -32.3656,90.64783 -12.3807,38.38731 -14.2022,46.89829 -26.5812,78.56082 -9.4799,24.24744 -10.6659,24.98808 -27.5492,59.09236 -16.4685,30.78522 -18.0767,30.78665 -26.368,48.19114 -9.8012,14.2647 -19.7031,28.02361 -27.2263,36.14371 -6.9168,7.46555 -18.4681,16.61497 -29.4532,23.19621 -7.80496,5.86529 -38.84778,12.34183 -50.4521,-10.3545 -3.27535,-5.41859 -4.54917,-7.92195 -5.94181,-16.05229 -1.10054,-6.42504 -0.60094,-19.79254 -0.008,-31.58767 3.43436,-19.19162 4.7089,-22.34664 7.5662,-32.42583 5.36631,-18.92977 8.24507,-26.55517 12.77228,-40.36556 8.95242,-27.46679 13.83419,-41.79706 21.0026,-59.98733 5.10485,-12.95375 8.71334,-20.39389 16.99593,-41.81997 10.3305,-24.17325 23.3407,-56.67869 15.9191,-67.41585 -6.7394,0.63843 -36.92246,43.11623 -56.81278,59.83501 -16.15261,12.0263 -46.81032,32.61759 -70.46244,26.02895 -24.52194,-5.32398 -37.74992,-17.05796 -42.33339,-39.81124 -0.75908,-14.96466 -0.25894,-22.52639 3.08012,-35.25297 5.09348,-19.41349 17.76565,-42.79197 28.68098,-62.82755 25.46791,-48.19392 28.86706,-51.44352 42.27603,-79.11192 7.39653,-24.6041 38.95013,-87.27062 6.39729,-98.31485 -23.8731,-6.87242 -48.77046,-0.0713 -64.82268,17.56298 -15.8857,34.9267 26.2121,7.40357 33.62946,14.21404 -9.70527,32.71055 -56.2829,44.70038 -66.73482,12.35817 -3.93969,-26.16594 4.15568,-33.73173 26.91003,-58.52068 z"
     id="path3864"
     inkscape:connector-curvature="0"
     sodipodi:nodetypes="ccccsscsccsccscsscscscccccccccsccsccsccscscscccccscccccccc" />
</svg>
